<svg width="13" height="16" viewBox="0 0 13 16" fill="none" xmlns="http://www.w3.org/2000/svg">
<path d="M0 14.4025C0 14.9773 0.199442 15.4337 0.598326 15.7718C0.8184 15.9239 1.05223 16 1.29981 16C1.49238 16 1.68494 15.9408 1.87751 15.8225L12.2966 9.43265C12.503 9.29741 12.6749 9.10301 12.8124 8.84944C12.95 8.59588 13.0119 8.30851 12.9981 7.98732C12.9844 7.66614 12.9225 7.38722 12.8124 7.15055C12.7024 6.91389 12.5305 6.71949 12.2966 6.56735L1.87751 0.177496C1.68494 0.0591653 1.49238 0 1.29981 0C1.06598 0 0.832155 0.0760698 0.598326 0.228209C0.199442 0.549393 0 1.00581 0 1.59746V14.4025Z" fill="white"/>
</svg>
