<svg width="23" height="24" viewBox="0 0 23 24" fill="none" xmlns="http://www.w3.org/2000/svg">
<path d="M10.3871 9.63461C10.3871 10.2371 10.8854 10.7255 11.5 10.7255C12.1146 10.7255 12.6129 10.2371 12.6129 9.63461H10.3871ZM12.6129 1.09088C12.6129 0.488407 12.1146 0 11.5 0C10.8854 0 10.3871 0.488407 10.3871 1.09088H12.6129ZM7.50966 4.96211C8.06904 4.71245 8.31595 4.06555 8.06132 3.51724C7.80655 2.96894 7.1466 2.72687 6.58723 2.97655L7.50966 4.96211ZM1.11304 12.9596L0 12.9539L0.00022288 12.9722L1.11304 12.9596ZM11.5 22.9084L11.5128 21.8175C11.5043 21.8175 11.4957 21.8175 11.4872 21.8175L11.5 22.9084ZM21.887 12.9596L23 12.9722L22.9999 12.9539L21.887 12.9596ZM16.4127 2.97655C15.8533 2.72687 15.1935 2.96894 14.9387 3.51724C14.6841 4.06555 14.931 4.71245 15.4904 4.96211L16.4127 2.97655ZM12.6129 9.63461V1.09088H10.3871V9.63461H12.6129ZM6.58723 2.97655C2.59456 4.7587 0.0229849 8.65356 0 12.9539L2.22591 12.9653C2.24436 9.51588 4.30697 6.39166 7.50966 4.96211L6.58723 2.97655ZM0.00022288 12.9722C0.0733768 19.1334 5.22743 24.0699 11.5128 23.9993L11.4872 21.8175C6.43092 21.8745 2.2847 17.9032 2.22585 12.9469L0.00022288 12.9722ZM11.4872 23.9993C17.7725 24.0699 22.927 19.1334 23 12.9722L20.7742 12.9469C20.7153 17.9032 16.5691 21.8745 11.5128 21.8175L11.4872 23.9993ZM22.9999 12.9539C22.9769 8.65356 20.4055 4.7587 16.4127 2.97655L15.4904 4.96211C18.693 6.39166 20.7557 9.51588 20.7741 12.9653L22.9999 12.9539Z" fill="#404040"/>
</svg>
